# xmcd
# Copyright (C) 1995-1998 Ti Kan
#
# Track frame offsets:
#       150
#       38082
#       76128
#
# Disc length: 1633 seconds
#
# Revision: 0
# Processed by: cddbd v1.5.2PL0 Copyright (c) Steve Scherf et al.
# Submitted via: CD-Transfer v1.0
#
DISCID=15065f03
DTITLE=Mayer,John - Live At Webster Hall, Ny, September 06
DYEAR=06
DGENRE=
TTITLE0=Daughters
TTITLE1=I'm Gonna Find Another You
TTITLE2=In Repair
EXTD=
EXTT0=
EXTT1=
EXTT2=
PLAYORDER=
